<mxfile host="www.draw.io" modified="2020-02-18T09:35:47.752Z" agent="Mozilla/5.0 (Windows NT 10.0; Win64; x64) AppleWebKit/537.36 (KHTML, like Gecko) Chrome/80.0.3987.106 Safari/537.36" etag="MLR9-2b2TcUqJJy75fXW" version="12.7.1" type="github">
  <diagram id="prtHgNgQTEPvFCAcTncT" name="Page-1">
    <mxGraphModel dx="1826" dy="783" grid="1" gridSize="10" guides="1" tooltips="1" connect="1" arrows="1" fold="1" page="1" pageScale="1" pageWidth="827" pageHeight="1169" math="0" shadow="0">
      <root>
        <mxCell id="0" />
        <mxCell id="1" parent="0" />
        <mxCell id="sg-fpRDAkvCFukHvgcXz-1" value="Product" style="whiteSpace=wrap;html=1;aspect=fixed;" vertex="1" parent="1">
          <mxGeometry x="59.99999999999997" y="400" width="80" height="80" as="geometry" />
        </mxCell>
        <mxCell id="sg-fpRDAkvCFukHvgcXz-2" value="Titel" style="ellipse;whiteSpace=wrap;html=1;" vertex="1" parent="1">
          <mxGeometry x="190" y="340" width="80" height="40" as="geometry" />
        </mxCell>
        <mxCell id="sg-fpRDAkvCFukHvgcXz-3" value="Beschrijving" style="ellipse;whiteSpace=wrap;html=1;" vertex="1" parent="1">
          <mxGeometry x="190" y="390" width="80" height="40" as="geometry" />
        </mxCell>
        <mxCell id="sg-fpRDAkvCFukHvgcXz-4" value="Prijs" style="ellipse;whiteSpace=wrap;html=1;" vertex="1" parent="1">
          <mxGeometry x="190" y="440" width="80" height="40" as="geometry" />
        </mxCell>
        <mxCell id="sg-fpRDAkvCFukHvgcXz-5" value="ArtNr." style="ellipse;whiteSpace=wrap;html=1;" vertex="1" parent="1">
          <mxGeometry x="190" y="490" width="80" height="40" as="geometry" />
        </mxCell>
        <mxCell id="sg-fpRDAkvCFukHvgcXz-6" value="" style="endArrow=classic;html=1;exitX=0;exitY=0.5;exitDx=0;exitDy=0;entryX=1;entryY=0.75;entryDx=0;entryDy=0;" edge="1" parent="1" source="sg-fpRDAkvCFukHvgcXz-5" target="sg-fpRDAkvCFukHvgcXz-1">
          <mxGeometry width="50" height="50" relative="1" as="geometry">
            <mxPoint x="19.99999999999997" y="600" as="sourcePoint" />
            <mxPoint x="69.99999999999997" y="550" as="targetPoint" />
          </mxGeometry>
        </mxCell>
        <mxCell id="sg-fpRDAkvCFukHvgcXz-8" value="" style="endArrow=classic;html=1;exitX=0;exitY=0.5;exitDx=0;exitDy=0;entryX=1.016;entryY=0.595;entryDx=0;entryDy=0;entryPerimeter=0;" edge="1" parent="1" source="sg-fpRDAkvCFukHvgcXz-4" target="sg-fpRDAkvCFukHvgcXz-1">
          <mxGeometry width="50" height="50" relative="1" as="geometry">
            <mxPoint x="200" y="540" as="sourcePoint" />
            <mxPoint x="149.99999999999997" y="470" as="targetPoint" />
          </mxGeometry>
        </mxCell>
        <mxCell id="sg-fpRDAkvCFukHvgcXz-9" value="" style="endArrow=classic;html=1;exitX=0;exitY=0.5;exitDx=0;exitDy=0;entryX=0.999;entryY=0.378;entryDx=0;entryDy=0;entryPerimeter=0;" edge="1" parent="1" source="sg-fpRDAkvCFukHvgcXz-3" target="sg-fpRDAkvCFukHvgcXz-1">
          <mxGeometry width="50" height="50" relative="1" as="geometry">
            <mxPoint x="210" y="550" as="sourcePoint" />
            <mxPoint x="159.99999999999997" y="480" as="targetPoint" />
          </mxGeometry>
        </mxCell>
        <mxCell id="sg-fpRDAkvCFukHvgcXz-10" value="" style="endArrow=classic;html=1;exitX=0;exitY=0.5;exitDx=0;exitDy=0;entryX=1;entryY=0.25;entryDx=0;entryDy=0;" edge="1" parent="1" source="sg-fpRDAkvCFukHvgcXz-2" target="sg-fpRDAkvCFukHvgcXz-1">
          <mxGeometry width="50" height="50" relative="1" as="geometry">
            <mxPoint x="220" y="560" as="sourcePoint" />
            <mxPoint x="169.99999999999997" y="490" as="targetPoint" />
          </mxGeometry>
        </mxCell>
        <mxCell id="sg-fpRDAkvCFukHvgcXz-11" value="Categorie" style="whiteSpace=wrap;html=1;aspect=fixed;" vertex="1" parent="1">
          <mxGeometry x="59.99999999999997" y="580" width="80" height="80" as="geometry" />
        </mxCell>
        <mxCell id="sg-fpRDAkvCFukHvgcXz-12" value="Titel" style="ellipse;whiteSpace=wrap;html=1;" vertex="1" parent="1">
          <mxGeometry x="179.99999999999997" y="600" width="80" height="40" as="geometry" />
        </mxCell>
        <mxCell id="sg-fpRDAkvCFukHvgcXz-13" value="" style="endArrow=classic;html=1;exitX=0;exitY=0.5;exitDx=0;exitDy=0;entryX=1;entryY=0.5;entryDx=0;entryDy=0;" edge="1" parent="1" source="sg-fpRDAkvCFukHvgcXz-12" target="sg-fpRDAkvCFukHvgcXz-11">
          <mxGeometry width="50" height="50" relative="1" as="geometry">
            <mxPoint x="200" y="370" as="sourcePoint" />
            <mxPoint x="149.99999999999997" y="430" as="targetPoint" />
          </mxGeometry>
        </mxCell>
        <mxCell id="sg-fpRDAkvCFukHvgcXz-14" value="" style="rhombus;whiteSpace=wrap;html=1;" vertex="1" parent="1">
          <mxGeometry x="9.999999999999972" y="670" width="40" height="40" as="geometry" />
        </mxCell>
        <mxCell id="sg-fpRDAkvCFukHvgcXz-16" value="" style="endArrow=none;html=1;exitX=0.5;exitY=1;exitDx=0;exitDy=0;entryX=1;entryY=0.5;entryDx=0;entryDy=0;" edge="1" parent="1" source="sg-fpRDAkvCFukHvgcXz-11" target="sg-fpRDAkvCFukHvgcXz-14">
          <mxGeometry width="50" height="50" relative="1" as="geometry">
            <mxPoint x="119.99999999999997" y="800" as="sourcePoint" />
            <mxPoint x="169.99999999999997" y="750" as="targetPoint" />
            <Array as="points">
              <mxPoint x="99.99999999999997" y="690" />
            </Array>
          </mxGeometry>
        </mxCell>
        <mxCell id="sg-fpRDAkvCFukHvgcXz-17" value="" style="endArrow=none;html=1;exitX=0.5;exitY=0;exitDx=0;exitDy=0;entryX=0;entryY=0.5;entryDx=0;entryDy=0;" edge="1" parent="1" source="sg-fpRDAkvCFukHvgcXz-14" target="sg-fpRDAkvCFukHvgcXz-11">
          <mxGeometry width="50" height="50" relative="1" as="geometry">
            <mxPoint x="-30.00000000000003" y="620" as="sourcePoint" />
            <mxPoint x="19.99999999999997" y="570" as="targetPoint" />
            <Array as="points">
              <mxPoint x="29.99999999999997" y="620" />
            </Array>
          </mxGeometry>
        </mxCell>
        <mxCell id="sg-fpRDAkvCFukHvgcXz-18" value="1" style="text;html=1;align=center;verticalAlign=middle;resizable=0;points=[];autosize=1;" vertex="1" parent="1">
          <mxGeometry x="99.99999999999997" y="660" width="20" height="20" as="geometry" />
        </mxCell>
        <mxCell id="sg-fpRDAkvCFukHvgcXz-19" value="N" style="text;html=1;align=center;verticalAlign=middle;resizable=0;points=[];autosize=1;" vertex="1" parent="1">
          <mxGeometry x="39.99999999999997" y="620" width="20" height="20" as="geometry" />
        </mxCell>
        <mxCell id="sg-fpRDAkvCFukHvgcXz-20" value="" style="rhombus;whiteSpace=wrap;html=1;" vertex="1" parent="1">
          <mxGeometry x="79.99999999999997" y="510" width="40" height="40" as="geometry" />
        </mxCell>
        <mxCell id="sg-fpRDAkvCFukHvgcXz-21" value="" style="endArrow=none;html=1;exitX=0.5;exitY=1;exitDx=0;exitDy=0;entryX=0.5;entryY=0;entryDx=0;entryDy=0;" edge="1" parent="1" source="sg-fpRDAkvCFukHvgcXz-1" target="sg-fpRDAkvCFukHvgcXz-20">
          <mxGeometry width="50" height="50" relative="1" as="geometry">
            <mxPoint x="-70.00000000000003" y="540" as="sourcePoint" />
            <mxPoint x="-20.00000000000003" y="490" as="targetPoint" />
          </mxGeometry>
        </mxCell>
        <mxCell id="sg-fpRDAkvCFukHvgcXz-22" value="" style="endArrow=none;html=1;exitX=0.5;exitY=1;exitDx=0;exitDy=0;entryX=0.5;entryY=0;entryDx=0;entryDy=0;" edge="1" parent="1" source="sg-fpRDAkvCFukHvgcXz-20" target="sg-fpRDAkvCFukHvgcXz-11">
          <mxGeometry width="50" height="50" relative="1" as="geometry">
            <mxPoint x="9.999999999999972" y="780" as="sourcePoint" />
            <mxPoint x="59.99999999999997" y="730" as="targetPoint" />
          </mxGeometry>
        </mxCell>
        <mxCell id="sg-fpRDAkvCFukHvgcXz-24" value="N" style="text;html=1;align=center;verticalAlign=middle;resizable=0;points=[];autosize=1;" vertex="1" parent="1">
          <mxGeometry x="99.99999999999997" y="560" width="20" height="20" as="geometry" />
        </mxCell>
        <mxCell id="sg-fpRDAkvCFukHvgcXz-25" value="M" style="text;html=1;align=center;verticalAlign=middle;resizable=0;points=[];autosize=1;" vertex="1" parent="1">
          <mxGeometry x="94.99999999999997" y="480" width="30" height="20" as="geometry" />
        </mxCell>
        <mxCell id="sg-fpRDAkvCFukHvgcXz-27" value="" style="rhombus;whiteSpace=wrap;html=1;" vertex="1" parent="1">
          <mxGeometry x="79.99999999999997" y="330" width="40" height="40" as="geometry" />
        </mxCell>
        <mxCell id="sg-fpRDAkvCFukHvgcXz-28" value="" style="endArrow=none;html=1;exitX=0.5;exitY=1;exitDx=0;exitDy=0;entryX=0.5;entryY=0;entryDx=0;entryDy=0;" edge="1" parent="1" target="sg-fpRDAkvCFukHvgcXz-27">
          <mxGeometry width="50" height="50" relative="1" as="geometry">
            <mxPoint x="99.99999999999997" y="300" as="sourcePoint" />
            <mxPoint x="-20.00000000000003" y="310" as="targetPoint" />
          </mxGeometry>
        </mxCell>
        <mxCell id="sg-fpRDAkvCFukHvgcXz-29" value="" style="endArrow=none;html=1;exitX=0.5;exitY=1;exitDx=0;exitDy=0;entryX=0.5;entryY=0;entryDx=0;entryDy=0;" edge="1" parent="1" source="sg-fpRDAkvCFukHvgcXz-27">
          <mxGeometry width="50" height="50" relative="1" as="geometry">
            <mxPoint x="9.999999999999972" y="600" as="sourcePoint" />
            <mxPoint x="99.99999999999997" y="400" as="targetPoint" />
          </mxGeometry>
        </mxCell>
        <mxCell id="sg-fpRDAkvCFukHvgcXz-30" value="N" style="text;html=1;align=center;verticalAlign=middle;resizable=0;points=[];autosize=1;" vertex="1" parent="1">
          <mxGeometry x="99.99999999999997" y="380" width="20" height="20" as="geometry" />
        </mxCell>
        <mxCell id="sg-fpRDAkvCFukHvgcXz-31" value="M" style="text;html=1;align=center;verticalAlign=middle;resizable=0;points=[];autosize=1;" vertex="1" parent="1">
          <mxGeometry x="94.99999999999997" y="300" width="30" height="20" as="geometry" />
        </mxCell>
        <mxCell id="sg-fpRDAkvCFukHvgcXz-32" value="Order" style="whiteSpace=wrap;html=1;aspect=fixed;" vertex="1" parent="1">
          <mxGeometry x="59.99999999999997" y="220" width="80" height="80" as="geometry" />
        </mxCell>
        <mxCell id="sg-fpRDAkvCFukHvgcXz-35" value="Betaal status" style="ellipse;whiteSpace=wrap;html=1;" vertex="1" parent="1">
          <mxGeometry x="189.99999999999997" y="240.29" width="80" height="40" as="geometry" />
        </mxCell>
        <mxCell id="sg-fpRDAkvCFukHvgcXz-36" value="" style="endArrow=classic;html=1;exitX=0;exitY=0.5;exitDx=0;exitDy=0;entryX=1;entryY=0.5;entryDx=0;entryDy=0;" edge="1" parent="1" source="sg-fpRDAkvCFukHvgcXz-35" target="sg-fpRDAkvCFukHvgcXz-32">
          <mxGeometry width="50" height="50" relative="1" as="geometry">
            <mxPoint x="-200.00000000000003" y="370" as="sourcePoint" />
            <mxPoint x="-150.00000000000003" y="320" as="targetPoint" />
          </mxGeometry>
        </mxCell>
        <mxCell id="sg-fpRDAkvCFukHvgcXz-40" value="Datum" style="ellipse;whiteSpace=wrap;html=1;" vertex="1" parent="1">
          <mxGeometry x="189.99999999999997" y="190" width="80" height="40" as="geometry" />
        </mxCell>
        <mxCell id="sg-fpRDAkvCFukHvgcXz-41" value="" style="endArrow=classic;html=1;exitX=0;exitY=0.5;exitDx=0;exitDy=0;entryX=1;entryY=0.25;entryDx=0;entryDy=0;" edge="1" parent="1" source="sg-fpRDAkvCFukHvgcXz-40" target="sg-fpRDAkvCFukHvgcXz-32">
          <mxGeometry width="50" height="50" relative="1" as="geometry">
            <mxPoint x="110.47" y="170" as="sourcePoint" />
            <mxPoint x="160.47" y="120" as="targetPoint" />
          </mxGeometry>
        </mxCell>
        <mxCell id="sg-fpRDAkvCFukHvgcXz-42" value="" style="rhombus;whiteSpace=wrap;html=1;" vertex="1" parent="1">
          <mxGeometry x="79.99999999999997" y="149.99999999999997" width="40" height="40" as="geometry" />
        </mxCell>
        <mxCell id="sg-fpRDAkvCFukHvgcXz-43" value="" style="endArrow=none;html=1;exitX=0.5;exitY=1;exitDx=0;exitDy=0;entryX=0.5;entryY=0;entryDx=0;entryDy=0;" edge="1" parent="1" target="sg-fpRDAkvCFukHvgcXz-42">
          <mxGeometry width="50" height="50" relative="1" as="geometry">
            <mxPoint x="99.99999999999977" y="119.99999999999997" as="sourcePoint" />
            <mxPoint x="-20.00000000000003" y="129.99999999999997" as="targetPoint" />
          </mxGeometry>
        </mxCell>
        <mxCell id="sg-fpRDAkvCFukHvgcXz-44" value="" style="endArrow=none;html=1;exitX=0.5;exitY=1;exitDx=0;exitDy=0;entryX=0.5;entryY=0;entryDx=0;entryDy=0;" edge="1" parent="1" source="sg-fpRDAkvCFukHvgcXz-42">
          <mxGeometry width="50" height="50" relative="1" as="geometry">
            <mxPoint x="9.999999999999972" y="420" as="sourcePoint" />
            <mxPoint x="99.99999999999977" y="219.99999999999997" as="targetPoint" />
          </mxGeometry>
        </mxCell>
        <mxCell id="sg-fpRDAkvCFukHvgcXz-45" value="1" style="text;html=1;align=center;verticalAlign=middle;resizable=0;points=[];autosize=1;" vertex="1" parent="1">
          <mxGeometry x="99.99999999999997" y="199.99999999999997" width="20" height="20" as="geometry" />
        </mxCell>
        <mxCell id="sg-fpRDAkvCFukHvgcXz-46" value="M" style="text;html=1;align=center;verticalAlign=middle;resizable=0;points=[];autosize=1;" vertex="1" parent="1">
          <mxGeometry x="94.99999999999997" y="120" width="30" height="20" as="geometry" />
        </mxCell>
        <mxCell id="sg-fpRDAkvCFukHvgcXz-47" value="Klant" style="whiteSpace=wrap;html=1;aspect=fixed;" vertex="1" parent="1">
          <mxGeometry x="59.99999999999997" y="40" width="80" height="80" as="geometry" />
        </mxCell>
        <mxCell id="sg-fpRDAkvCFukHvgcXz-58" style="edgeStyle=none;rounded=0;orthogonalLoop=1;jettySize=auto;html=1;entryX=1;entryY=0.25;entryDx=0;entryDy=0;" edge="1" parent="1" source="sg-fpRDAkvCFukHvgcXz-48" target="sg-fpRDAkvCFukHvgcXz-47">
          <mxGeometry relative="1" as="geometry" />
        </mxCell>
        <mxCell id="sg-fpRDAkvCFukHvgcXz-48" value="Naam" style="ellipse;whiteSpace=wrap;html=1;" vertex="1" parent="1">
          <mxGeometry x="189.99999999999997" y="10" width="80" height="40" as="geometry" />
        </mxCell>
        <mxCell id="sg-fpRDAkvCFukHvgcXz-59" style="edgeStyle=none;rounded=0;orthogonalLoop=1;jettySize=auto;html=1;entryX=1;entryY=0.5;entryDx=0;entryDy=0;" edge="1" parent="1" source="sg-fpRDAkvCFukHvgcXz-49" target="sg-fpRDAkvCFukHvgcXz-47">
          <mxGeometry relative="1" as="geometry" />
        </mxCell>
        <mxCell id="sg-fpRDAkvCFukHvgcXz-49" value="Factuur Adress" style="ellipse;whiteSpace=wrap;html=1;" vertex="1" parent="1">
          <mxGeometry x="189.99999999999997" y="59.71000000000001" width="80" height="40" as="geometry" />
        </mxCell>
        <mxCell id="sg-fpRDAkvCFukHvgcXz-60" style="edgeStyle=none;rounded=0;orthogonalLoop=1;jettySize=auto;html=1;entryX=1;entryY=0.75;entryDx=0;entryDy=0;" edge="1" parent="1" source="sg-fpRDAkvCFukHvgcXz-50" target="sg-fpRDAkvCFukHvgcXz-47">
          <mxGeometry relative="1" as="geometry" />
        </mxCell>
        <mxCell id="sg-fpRDAkvCFukHvgcXz-50" value="Bezorg Adress" style="ellipse;whiteSpace=wrap;html=1;" vertex="1" parent="1">
          <mxGeometry x="189.99999999999997" y="110.00000000000001" width="80" height="40" as="geometry" />
        </mxCell>
        <mxCell id="sg-fpRDAkvCFukHvgcXz-61" value="Bezorg &lt;br&gt;Status" style="ellipse;whiteSpace=wrap;html=1;" vertex="1" parent="1">
          <mxGeometry x="189.99999999999997" y="290" width="80" height="40" as="geometry" />
        </mxCell>
        <mxCell id="sg-fpRDAkvCFukHvgcXz-62" value="" style="endArrow=classic;html=1;exitX=0;exitY=0.5;exitDx=0;exitDy=0;entryX=1;entryY=0.75;entryDx=0;entryDy=0;" edge="1" parent="1" source="sg-fpRDAkvCFukHvgcXz-61" target="sg-fpRDAkvCFukHvgcXz-32">
          <mxGeometry width="50" height="50" relative="1" as="geometry">
            <mxPoint x="340" y="319.71000000000004" as="sourcePoint" />
            <mxPoint x="390" y="269.71000000000004" as="targetPoint" />
          </mxGeometry>
        </mxCell>
      </root>
    </mxGraphModel>
  </diagram>
</mxfile>
